inDegrees=no
num_controls=7
num_derivatives=13
num_iterations=127
num_multipliers=7
num_parameters=0
num_slacks=7
num_states=26
objective=0.444908
objective_accelerations=0.057956
objective_balance=0.003623
objective_effort=0.023334
objective_height=0.354495
objective_ligament=0.005501
solver_duration=1826.753965
status=Solve_Succeeded
success=true
DataType=double
version=3
OpenSimVersion=4.5
endheader
time	/jointset/ground_pelvis/pelvis_tilt/value	/jointset/ground_pelvis/pelvis_tx/value	/jointset/ground_pelvis/pelvis_ty/value	/jointset/hip_l/hip_flexion_l/value	/jointset/hip_l/hip_adduction_l/value	/jointset/hip_l/hip_rotation_l/value	/jointset/back/lumbar_extension/value	/jointset/patellofemoral_l/patellar_flexion_l/value	/jointset/knee_l/knee_flexion_l/value	/jointset/knee_l/knee_adduction_l/value	/jointset/knee_l/knee_rotation_l/value	/jointset/ankle_l/ankle_angle_l/value	/jointset/subtalar_l/subtalar_angle_l/value	/jointset/ground_pelvis/pelvis_tilt/speed	/jointset/ground_pelvis/pelvis_tx/speed	/jointset/ground_pelvis/pelvis_ty/speed	/jointset/hip_l/hip_flexion_l/speed	/jointset/hip_l/hip_adduction_l/speed	/jointset/hip_l/hip_rotation_l/speed	/jointset/back/lumbar_extension/speed	/jointset/patellofemoral_l/patellar_flexion_l/speed	/jointset/knee_l/knee_flexion_l/speed	/jointset/knee_l/knee_adduction_l/speed	/jointset/knee_l/knee_rotation_l/speed	/jointset/ankle_l/ankle_angle_l/speed	/jointset/subtalar_l/subtalar_angle_l/speed	/forceset/tau_hip_flexion_l	/forceset/tau_hip_adduction_l	/forceset/tau_hip_rotation_l	/forceset/tau_knee_flexion_l	/forceset/tau_ankle_angle_l	/forceset/tau_subtalar_angle_l	/forceset/tau_lumbar_extension	lambda_cid13_p0	lambda_cid13_p1	lambda_cid13_p2	lambda_cid13_p3	lambda_cid13_p4	lambda_cid13_p5	lambda_cid14_p0	/jointset/ground_pelvis/pelvis_tilt/accel	/jointset/ground_pelvis/pelvis_tx/accel	/jointset/ground_pelvis/pelvis_ty/accel	/jointset/hip_l/hip_flexion_l/accel	/jointset/hip_l/hip_adduction_l/accel	/jointset/hip_l/hip_rotation_l/accel	/jointset/back/lumbar_extension/accel	/jointset/patellofemoral_l/patellar_flexion_l/accel	/jointset/knee_l/knee_flexion_l/accel	/jointset/knee_l/knee_adduction_l/accel	/jointset/knee_l/knee_rotation_l/accel	/jointset/ankle_l/ankle_angle_l/accel	/jointset/subtalar_l/subtalar_angle_l/accel	gamma_cid13_p0	gamma_cid13_p1	gamma_cid13_p2	gamma_cid13_p3	gamma_cid13_p4	gamma_cid13_p5	gamma_cid14_p0
1	-0.5586241898011312	-0.08555654967010064	0.5686708596309373	1.860671396751221	-0.4670871254428832	0.01693340013149284	-0.2617934957169429	1.39235905182089	1.392359051823349	-0.08300977626848773	-0.1745292262696097	0.2128456706685457	-0.0139683200499033	-0.01632146110569786	0.01084281073004849	0.002850780705649336	-0.003148849605966157	-0.002453915134995199	0.003514565479126248	-7.52585378785345e-06	0.001739839399649749	0.001739839399649275	-0.005288169477457692	-8.818920710962572e-05	0.02114536882619315	0.009108027351402606	-0.339098000377053	0.01074491956739614	0.0003695340562148642	-0.3031887572675847	0.04233631477011508	0.03187830432268993	0.2883172273512057	-26.43821042803514	-9.951916825312408	2.091731686939897	6.985764269651698	-644.2327208876901	-47.78199725401095	-1.263831572348622	1.539840554140915	0.2524544207313689	1.998078503704574	-6.920550227637269	-0.09494504085260412	-2.350153303838193	-0.02139347270544712	-5.317462818779368	-5.317462818779394	-0.6116394961812865	-0.02797832127590023	-0.6178462110465177	-0.4432532129477013	4.84191555190632e-09	1.821625692906015e-08	-1.410325569119636e-08	2.697238844165394e-09	-1.849297691976334e-09	2.295039500362465e-08	2.498328139378858e-09
1.01	-0.5587113657116121	-0.08543555663912077	0.5687991199741009	1.860295205259096	-0.4671153722088981	0.01684982665870965	-0.261793615340893	1.392110695828726	1.392110695828857	-0.08309041609863195	-0.1745302035215364	0.2130263876021067	-0.01389797234228121	-0.001112800977743667	0.01335818118554721	0.02279692705698667	-0.07207998564705451	-0.003191697227929522	-0.0202262849278589	-1.694605931361391e-05	-0.05140829266850932	-0.0514082926685113	-0.01083844458399348	-0.0001058797941778631	0.01499101517675296	0.004961878490451001	-0.3389821556593932	0.01082764915006069	0.0003528934190082623	-0.3030375873584089	0.04217495844912296	0.0319114037279552	0.2882313088629238	-26.47590667335317	-9.964736498465621	2.099538000002513	6.922133585641523	-644.0758248548941	-47.81036840775564	-1.268724830754619	1.511515489955489	0.2514368059189457	1.992226083263881	-6.87797731575014	-0.0626344266932881	-2.385610640448105	0.009201637050046816	-5.313074567022886	-5.313074567023068	-0.5265223820872671	0.01155081027742385	-0.615279821926748	-0.4002456992131445	-3.64952008433561e-09	8.51377791538364e-09	2.760409273901257e-08	2.947656582851484e-09	-1.232950883708667e-08	7.58328628998929e-08	-1.016821709728377e-08
1.02	-0.5586464276712473	-0.08528933821399398	0.569126710457261	1.85922998600188	-0.4671508847224785	0.01652893273559407	-0.2617938455805908	1.391330941282642	1.391330941280445	-0.08322651885268047	-0.1745313146317836	0.2131453510231665	-0.01386907611857752	0.01410132906352472	0.015887889559435	0.04271680870494667	-0.140954402624364	-0.00390706464804162	-0.04394952458762085	-2.964900379073913e-05	-0.1045398713842171	-0.1045398713842193	-0.01638075425843113	-0.0001149608732572155	0.008794666325953476	0.0008177305677296452	-0.3388663109417304	0.01091037873272777	0.0003362527818110458	-0.3028864174492332	0.04201360212813114	0.03194450313322372	0.2881453903746444	-26.51923149233581	-9.976484831163678	2.107075546138721	6.879420082440638	-643.9983084118795	-47.81633436344811	-1.283572060747796	1.540934536803758	0.2553220044091733	1.992825563029107	-6.909206414881488	-0.09046210628813134	-2.346631154393525	-0.02205002049571166	-5.314152148289111	-5.314152148288884	-0.6100464097616481	-0.02625641967807115	-0.6262452513183876	-0.4428530253016216	-1.171991582758101e-08	7.609473332094726e-10	7.031991186255639e-08	4.061812271846493e-09	-2.222379133421369e-08	1.282485090070335e-07	-2.224704734197498e-08
1.03	-0.5584292797804969	-0.08511770894867876	0.5696532901028361	1.857476455921511	-0.4671933305722124	0.01597105003314979	-0.2617941986935514	1.390020058051154	1.39002005804924	-0.08341797798045443	-0.1745323698713126	0.213202091924169	-0.01388149993022053	0.02933259540581139	0.01844446534108397	0.06258694397249018	-0.2097265818771449	-0.004566488993688029	-0.06760802490118144	-3.87533246647161e-05	-0.1576238444608904	-0.157623844460926	-0.02190591320479507	-8.242264045454028e-05	0.002541865351681315	-0.003289562728323953	-0.3384610958477572	0.01105122308665344	0.0002880647875500199	-0.3026047188737311	0.04194643386110976	0.03204808883866241	0.2878686609282577	-26.51210001953213	-10.03591706788868	2.13162398499226	6.747051750203235	-643.6293294176371	-47.88938323566538	-1.30858414117387	1.514870992102847	0.2568016844096411	1.982274560634348	-6.8574732102193	-0.05134989849327781	-2.37263191692632	0.009992401702192396	-5.303573382372746	-5.303573382377919	-0.5229895876568302	0.02008762069358885	-0.6265444776987715	-0.3927401668737817	-1.978601524538767e-08	-6.971988877214662e-09	1.130460215033792e-07	5.184781613395678e-09	-3.211209496758578e-08	1.806593916265299e-07	-3.431988049491138e-08
